<svg xmlns="http://www.w3.org/2000/svg" xmlns:xlink="http://www.w3.org/1999/xlink" width="344" height="206" viewBox="0 0 344 206">
    <defs>
        <path id="8zzymu3c0a" d="M0 0.458L343.876 0.458 343.876 196.24 0 196.24z"/>
        <path id="dpmyhgl64c" d="M0.485 0.129L87.061 0.129 87.061 35.192 0.485 35.192z"/>
        <path id="h4hoq11tse" d="M0.068 0.519L98.513 0.519 98.513 122.826 0.068 122.826z"/>
    </defs>
    <g fill="none" fill-rule="evenodd">
        <g>
            <g>
                <g transform="translate(-36 -202) translate(36 202) translate(0 8)">
                    <mask id="rp1ohw5fab" fill="#fff">
                        <use xlink:href="#8zzymu3c0a"/>
                    </mask>
                    <path fill="#ECFBFF" d="M162.146 190.68c-41.006 5.9-86.444 14.735-133.616-19.781C-24.255 132.275 1.11 19.837 64.507 7.536c50.245-9.748 64.76 4.772 97.448 6.816 36.518 2.285 69.264-19.966 116.568-12.267 79.561 12.948 99.402 175.477-14.186 187.422-41.559 4.37-46.01-6.911-102.19 1.173" mask="url(#rp1ohw5fab)"/>
                </g>
                <path fill="#CEF6FF" d="M277.984 199.53c0 3.21-27.513 5.813-61.453 5.813s-61.453-2.602-61.453-5.813c0-3.21 27.514-5.813 61.453-5.813 33.94 0 61.453 2.603 61.453 5.813" transform="translate(-36 -202) translate(36 202)"/>
                <path fill="#FFDAC2" d="M167.494 157.571c0 3.174-24.138 5.746-53.912 5.746-29.776 0-53.913-2.572-53.913-5.746 0-3.173 24.137-5.745 53.913-5.745 29.774 0 53.912 2.572 53.912 5.745" transform="translate(-36 -202) translate(36 202)"/>
                <path fill="#ABE9F8" d="M257.13 199.315c0 1.426-9.997 2.583-22.33 2.583-12.331 0-22.329-1.157-22.329-2.583 0-1.427 9.998-2.584 22.33-2.584 12.332 0 22.33 1.157 22.33 2.584" transform="translate(-36 -202) translate(36 202)"/>
                <path fill="#FFC49E" d="M121.491 157.054c0 1.427-9.997 2.584-22.33 2.584-12.332 0-22.33-1.157-22.33-2.584 0-1.426 9.998-2.583 22.33-2.583 12.333 0 22.33 1.157 22.33 2.583" transform="translate(-36 -202) translate(36 202)"/>
                <g transform="translate(-36 -202) translate(36 202) translate(54.84 .4)">
                    <mask id="zucgt2cpzd" fill="#fff">
                        <use xlink:href="#dpmyhgl64c"/>
                    </mask>
                    <path fill="#FFEAEC" d="M87.06 35.192H.486c.706-5.968 4.796-10.999 10.464-13.431-.004-.102-.004-.206-.004-.31C10.945 9.674 21.308.128 34.088.128c6.96 0 13.201 2.83 17.444 7.31 1.737-.695 3.652-1.082 5.664-1.082 7.613 0 13.825 5.518 14.187 12.45 8.76 1.153 15.522 8.027 15.678 16.386" mask="url(#zucgt2cpzd)"/>
                </g>
                <path fill="#FFF" d="M310.126 86.29h-66.029c.538-4.55 3.657-8.387 7.98-10.242-.003-.078-.003-.158-.003-.237 0-8.982 7.904-16.262 17.65-16.262 5.31 0 10.07 2.158 13.306 5.574 1.324-.53 2.785-.824 4.32-.824 5.805 0 10.544 4.208 10.82 9.495 6.681.88 11.838 6.122 11.956 12.497" transform="translate(-36 -202) translate(36 202)"/>
                <path fill="#C1F3FF" d="M192.004 170.002L241.59 194.031 285.109 104.229 235.523 80.199z" transform="translate(-36 -202) translate(36 202)"/>
                <g transform="translate(-36 -202) translate(36 202) translate(188.056 77.04)">
                    <mask id="k9zigk4r5f" fill="#fff">
                        <use xlink:href="#h4hoq11tse"/>
                    </mask>
                    <path fill="#FFF" d="M52.442 1.197c-3.186-1.544-6.949-.361-8.404 2.641L.643 93.386c-1.456 3.003-.052 6.689 3.134 8.233l42.362 20.529c3.186 1.544 6.949.361 8.404-2.642L97.938 29.96c1.455-3.003.052-6.69-3.135-8.234L52.442 1.197zm39.485 25.24c1.735.84 2.47 2.92 1.64 4.635L54.255 112.19 6.562 89.079l39.312-81.12c.83-1.715 2.918-2.426 4.653-1.585l41.4 20.062z" mask="url(#k9zigk4r5f)"/>
                </g>
                <path fill="#FFF" d="M268.41 108.066l-4.051 8.36c-.194.4-.12.838.168.977l1.361.66c.287.139.362.577.167.977-.194.401-.584.613-.87.475l-1.882-.912-.86-.417-25.164-12.194c-.286-.14-.362-.577-.167-.978l4.755-9.811c.194-.401.584-.613.87-.474l25.505 12.36c.287.138.362.576.168.977" transform="translate(-36 -202) translate(36 202)"/>
                <path fill="#87CFE0" d="M273.34 119.99c.597-1.232.082-2.715-1.15-3.312-1.232-.596-2.714-.082-3.31 1.15-.597 1.232-.083 2.714 1.149 3.311 1.231.597 2.714.082 3.31-1.15" transform="translate(-36 -202) translate(36 202)"/>
                <path fill="#FFF" d="M214.368 152.201l-4.052 8.36c-.193.4-.584.613-.87.474l-1.362-.66c-.286-.139-.677.073-.87.474-.195.402-.12.839.167.978l1.88.91.86.417 25.164 12.196c.287.138.677-.074.872-.475l4.754-9.81c.195-.401.12-.84-.168-.978l-25.504-12.36c-.287-.139-.677.073-.871.474" transform="translate(-36 -202) translate(36 202)"/>
                <path fill="#87CFE0" d="M201.88 156.486c.532-1.098 1.855-1.558 2.954-1.025 1.1.532 1.558 1.855 1.025 2.954-.532 1.099-1.855 1.558-2.954 1.026-1.099-.533-1.558-1.856-1.025-2.955" transform="translate(-36 -202) translate(36 202)"/>
                <path fill="#FFF" d="M232.767 114.234l-4.052 8.36c-.194.401-.584.613-.87.474l-1.361-.66c-.288-.139-.678.074-.872.475-.195.4-.119.838.168.977l1.88.912.86.416 25.164 12.194c.287.14.677-.072.872-.473l4.754-9.811c.194-.401.12-.839-.168-.978l-25.505-12.36c-.286-.139-.677.074-.87.474" transform="translate(-36 -202) translate(36 202)"/>
                <path fill="#87CFE0" d="M219.509 118.003c.754-1.555 2.626-2.205 4.18-1.451 1.555.754 2.205 2.626 1.452 4.18-.754 1.555-2.626 2.205-4.18 1.451-1.556-.753-2.205-2.625-1.452-4.18" transform="translate(-36 -202) translate(36 202)"/>
                <path fill="#C1F3FF" d="M212.008 181.434c-1.004 2.073-.138 4.567 1.934 5.572 2.073 1.004 4.567.138 5.572-1.934 1.004-2.073.14-4.568-1.934-5.572-2.073-1.004-4.568-.138-5.572 1.934" transform="translate(-36 -202) translate(36 202)"/>
                <path fill="#FFDBD8" d="M144.821 129.198L93.692 149.74 56.488 57.143 107.618 36.6z" transform="translate(-36 -202) translate(36 202)"/>
                <path fill="#FFF" d="M102.79 34.298l-43.68 17.55c-3.285 1.32-4.94 4.9-3.696 7.997l37.098 92.334c1.244 3.096 4.916 4.536 8.202 3.216l43.679-17.55c3.286-1.32 4.94-4.9 3.697-7.997l-37.098-92.334c-1.245-3.096-4.917-4.536-8.202-3.216m1.552 5.297c1.79-.719 3.823.135 4.533 1.903l33.607 83.644-49.177 19.76-33.607-83.645c-.71-1.769.167-3.792 1.956-4.51" transform="translate(-36 -202) translate(36 202)"/>
                <path fill="#FFF" d="M72.882 62.126l3.463 8.62c.166.413.06.844-.235.963l-1.403.564c-.296.119-.401.55-.235.964.166.413.54.652.836.533l1.94-.779.885-.356 25.948-10.425c.296-.119.401-.55.235-.964l-4.065-10.117c-.166-.413-.54-.652-.836-.533L73.117 61.162c-.296.119-.401.55-.235.964" transform="translate(-36 -202) translate(36 202)"/>
                <path fill="#FFC49E" d="M67.14 73.68c-.51-1.27.105-2.713 1.375-3.224 1.27-.51 2.714.106 3.224 1.376.51 1.27-.106 2.714-1.376 3.224-1.27.51-2.713-.106-3.224-1.376" transform="translate(-36 -202) translate(36 202)"/>
                <path fill="#FFF" d="M123.742 109.893l3.464 8.62c.166.413.54.652.836.533l1.403-.564c.296-.119.67.12.837.533.166.414.06.845-.235.964l-1.94.779-.886.356-25.947 10.425c-.296.12-.67-.12-.836-.533l-4.065-10.117c-.166-.413-.061-.844.235-.963l26.298-10.566c.296-.119.67.12.836.533" transform="translate(-36 -202) translate(36 202)"/>
                <path fill="#FFC49E" d="M135.904 115.032c-.455-1.133-1.743-1.683-2.876-1.228-1.133.456-1.683 1.743-1.228 2.876.455 1.134 1.743 1.683 2.876 1.228 1.134-.455 1.683-1.743 1.228-2.876" transform="translate(-36 -202) translate(36 202)"/>
                <path fill="#FFF" d="M108.013 70.745l3.463 8.62c.167.413.541.651.837.533l1.403-.564c.296-.119.67.12.837.533.166.413.06.845-.235.964l-1.94.778-.886.357L85.545 92.39c-.296.119-.67-.12-.837-.533L80.644 81.74c-.166-.413-.061-.844.235-.963l26.298-10.567c.296-.118.67.12.836.534" transform="translate(-36 -202) translate(36 202)"/>
                <path fill="#D6CEFE" d="M120.978 75.421c-.644-1.603-2.466-2.38-4.07-1.736-1.603.644-2.38 2.466-1.737 4.07.645 1.603 2.467 2.38 4.07 1.736 1.604-.644 2.381-2.466 1.737-4.07" transform="translate(-36 -202) translate(36 202)"/>
                <path fill="#FFDBD8" d="M124.075 139.22c.858 2.137-.178 4.565-2.316 5.423-2.137.86-4.565-.176-5.424-2.314-.859-2.137.178-4.566 2.315-5.425s4.566.178 5.425 2.315" transform="translate(-36 -202) translate(36 202)"/>
                <path fill="#2D1350" d="M99.44 70.547c0 .11-.09.2-.2.2-.11 0-.2-.09-.2-.2 0-.11.09-.2.2-.2.11 0 .2.09.2.2" transform="translate(-36 -202) translate(36 202)"/>
                <path fill="#FB0000" d="M179.322 65.898s6.433-6.339 9.105-.525c3.71 8.07-13.463 10.047-13.463 10.047s-8.174-12.414-.496-14.992c4.925-1.654 4.854 5.47 4.854 5.47" transform="translate(-36 -202) translate(36 202)"/>
                <path stroke="#FFC49E" stroke-linecap="round" stroke-linejoin="round" stroke-width=".528" d="M183.88 52.637s1.923-1.896 2.722-.157c1.11 2.414-4.026 3.005-4.026 3.005s-2.445-3.713-.149-4.484c1.473-.494 1.452 1.636 1.452 1.636zM162.99 71.779s-.356-3.632 2.15-2.994c3.478.886-.266 6.783-.266 6.783s-5.977-.588-4.836-3.654c.733-1.968 2.953-.135 2.953-.135zM190.896 79.095s2.34-1.607 2.846.34c.703 2.7-4.72 2.365-4.72 2.365s-1.843-4.291.674-4.665c1.615-.24 1.2 1.96 1.2 1.96z" transform="translate(-36 -202) translate(36 202)"/>
                <path fill="#FFEA82" d="M138.697 20.362c-.917 4.596-5.386 7.579-9.982 6.661-4.597-.917-7.58-5.387-6.662-9.983.917-4.596 5.387-7.579 9.983-6.661 4.596.917 7.579 5.387 6.661 9.983" transform="translate(-36 -202) translate(36 202)"/>
                <path fill="#ED3C62" d="M126.376 17.165s.216-2.012 1.603-1.394c1.926.857-.946 3.656-.946 3.656s-3.418-.965-2.395-2.508c.657-.99 1.738.246 1.738.246M133.454 16.102s.691-1.9 1.89-.97c1.665 1.294-1.794 3.324-1.794 3.324s-3.087-1.755-1.724-3.008c.874-.804 1.628.654 1.628.654" transform="translate(-36 -202) translate(36 202)"/>
                <path fill="#FFF" d="M126.39 20.969l8.461-1.189s-.583 2.167-1.956 3.296c-1.671 1.375-4.35 1.496-6.505-2.107" transform="translate(-36 -202) translate(36 202)"/>
                <path fill="#FFEA82" d="M224.138 57.933c-1.213 4.527-5.866 7.214-10.393 6-4.527-1.213-7.214-5.866-6.001-10.393 1.213-4.527 5.867-7.214 10.394-6 4.527 1.212 7.214 5.866 6 10.393" transform="translate(-36 -202) translate(36 202)"/>
                <path fill="#FFF" d="M211.818 57.741l8.52-.638s-.722 2.125-2.165 3.162c-1.757 1.264-4.44 1.212-6.355-2.524" transform="translate(-36 -202) translate(36 202)"/>
                <path stroke="#ED3C62" stroke-linecap="round" stroke-width="1.056" d="M211.372 55.613c-.217-.873.316-1.757 1.189-1.974.873-.216 1.757.315 1.974 1.189M217.74 54.75c-.216-.873.316-1.757 1.19-1.973.873-.217 1.757.315 1.973 1.188" transform="translate(-36 -202) translate(36 202)"/>
                <path fill="#ABE9F8" d="M177.123 23.174c1.666-.079 3.081 1.208 3.16 2.875l.392 8.338c.084 1.784-1.218 3.296-2.907 3.375l-14.155.722-4.188 3.625.625-3.512-.241.011c-1.19.056-2.2-.914-2.26-2.17l-.442-9.398c-.076-1.611 1.169-2.978 2.779-3.054l17.237-.812z" transform="translate(-36 -202) translate(36 202)"/>
                <path fill="#FFF" d="M163.539 31.277c-.124.63-.735 1.04-1.364.917-.63-.124-1.04-.735-.917-1.365s.734-1.04 1.364-.916c.63.123 1.04.734.917 1.364M170.611 31.002c-.124.63-.734 1.04-1.364.917-.63-.123-1.04-.734-.917-1.364.124-.63.734-1.04 1.364-.917.63.123 1.04.734.917 1.364M177.203 30.672c-.123.63-.734 1.04-1.363.917-.63-.124-1.041-.735-.917-1.365.123-.63.733-1.04 1.364-.916.63.123 1.04.734.916 1.364" transform="translate(-36 -202) translate(36 202)"/>
                <g fill="#F86302">
                    <path d="M1.883 6.06c-.535.054-1.079.1-1.63.142-.15.011-.263.143-.252.293.01.144.13.254.273.254h.02c.556-.042 1.103-.09 1.643-.144.15-.015.26-.15.245-.3-.014-.15-.146-.258-.299-.245M41.115 1.444c-1.077-.368-2.167-.67-3.237-.894-.148-.032-.294.063-.325.211-.03.148.064.294.212.324 1.05.221 2.117.516 3.173.877.03.01.06.015.089.015.114 0 .22-.071.259-.185.049-.143-.028-.299-.17-.348M60.303 14.534c-.108-.107-.28-.107-.387 0-.108.107-.108.28 0 .387.758.76 1.532 1.563 2.3 2.389.054.057.128.087.2.087.068 0 .135-.025.188-.074.11-.103.116-.276.013-.387-.772-.83-1.55-1.638-2.314-2.402M34.55.075c-1.104-.084-2.243-.096-3.36-.043-.15.008-.268.136-.26.287.007.151.13.27.286.26 1.094-.052 2.21-.04 3.292.042l.021.001c.142 0 .262-.11.273-.253.011-.15-.102-.283-.252-.294M55.383 10.025c-.116-.097-.289-.08-.385.035-.098.116-.082.29.034.386.834.695 1.672 1.43 2.492 2.182.052.048.118.072.185.072.073 0 .147-.03.202-.089.101-.11.094-.284-.017-.386-.827-.76-1.67-1.498-2.511-2.2M52.443 7.708c-.808-.6-1.615-1.17-2.4-1.695-.125-.084-.296-.051-.38.075-.084.126-.05.296.076.38.777.52 1.577 1.085 2.377 1.68l.322.24c.05.038.107.055.165.055.083 0 .165-.038.219-.109.09-.121.066-.293-.055-.384l-.324-.242zM47.2 4.245c-.998-.573-1.998-1.092-2.973-1.545-.137-.063-.3-.004-.363.133-.064.138-.005.3.133.364.96.446 1.946.959 2.931 1.523.043.025.09.036.136.036.095 0 .187-.049.238-.137.075-.131.03-.299-.101-.374M8.44 5.074c-1.102.219-2.201.412-3.267.572-.15.023-.252.162-.23.312.021.135.138.233.27.233l.042-.003c1.074-.162 2.181-.356 3.29-.577.149-.03.245-.173.216-.322-.03-.148-.174-.246-.322-.215M14.9 3.547c-1.175.313-2.228.58-3.22.817-.146.035-.237.182-.202.33.03.125.142.21.266.21.02 0 .042-.002.064-.008.996-.237 2.054-.505 3.233-.82.146-.039.232-.189.194-.335-.039-.146-.19-.233-.335-.194M21.322 1.791c-1.053.279-2.122.575-3.214.878-.146.04-.231.191-.191.337.034.122.144.2.264.2.024 0 .049-.002.073-.009 1.09-.303 2.157-.598 3.208-.877.146-.038.234-.188.195-.334-.04-.146-.188-.233-.335-.195M27.853.37c-1.028.155-2.104.358-3.289.623-.147.033-.24.179-.207.326.028.128.141.215.267.215.02 0 .04-.003.06-.007 1.172-.261 2.235-.463 3.25-.615.15-.023.253-.162.23-.311-.022-.15-.16-.25-.31-.23M122.83 50.503c-.967 0-1.878-.011-2.787-.033-.147-.004-.277.116-.28.268-.004.151.116.277.267.28.892.022 1.802.032 2.73.032h.07l.537-.002-.006-.547-.532.002zM97.242 46.833c-1.046-.363-2.084-.76-3.085-1.182-.14-.058-.3.007-.358.146-.06.14.006.3.146.359 1.011.426 2.06.828 3.118 1.194.03.01.06.016.09.016.113 0 .219-.072.258-.185.05-.142-.026-.298-.169-.348M103.605 48.625c-1.095-.243-2.174-.515-3.209-.805-.144-.042-.296.044-.338.19-.04.145.044.296.19.337 1.044.292 2.133.566 3.237.814.02.003.04.005.06.005.126 0 .238-.086.267-.214.033-.147-.06-.294-.207-.327M91.161 44.264c-.978-.493-1.95-1.03-2.892-1.593-.13-.08-.298-.036-.375.094-.078.13-.036.298.094.375.952.571 1.936 1.114 2.926 1.613.039.02.082.03.123.03.1 0 .197-.055.245-.15.067-.136.014-.3-.121-.369M64.854 19.41c-.1-.113-.274-.125-.386-.024-.114.1-.125.273-.025.386.738.838 1.459 1.677 2.17 2.516.054.064.131.097.209.097.062 0 .125-.022.177-.065.115-.098.13-.27.032-.386-.714-.842-1.438-1.684-2.177-2.524M116.727 50.344c-1.12-.062-2.233-.14-3.307-.235-.142-.012-.283.097-.296.248-.014.151.097.283.248.297 1.08.096 2.199.175 3.325.236h.015c.144 0 .266-.112.273-.259.009-.15-.107-.28-.258-.287M110.126 49.753c-1.107-.141-2.209-.305-3.275-.49-.153-.024-.29.075-.317.224-.026.15.075.291.224.317 1.074.184 2.184.35 3.298.492.012.002.024.002.035.002.136 0 .254-.1.271-.238.02-.15-.087-.288-.236-.307M73.462 29.569c-.1-.114-.272-.127-.386-.028-.114.1-.127.273-.028.387.798.92 1.523 1.734 2.218 2.491.054.06.128.089.202.089.066 0 .133-.024.184-.072.112-.102.12-.275.017-.387-.69-.753-1.413-1.565-2.207-2.48M69.607 25.006l-.436-.522c-.097-.117-.27-.132-.386-.036-.115.097-.131.27-.034.386l.436.522c.568.681 1.133 1.359 1.699 2.032.054.065.131.098.209.098.063 0 .125-.021.176-.065.116-.097.131-.27.034-.384-.566-.674-1.13-1.351-1.698-2.031M82.857 38.89c-.118-.094-.29-.076-.385.042-.095.118-.076.29.042.385.877.706 1.776 1.38 2.67 2.007.048.033.103.049.158.049.085 0 .17-.04.224-.117.087-.124.056-.295-.068-.382-.885-.618-1.773-1.286-2.641-1.984M77.955 34.448c-.107-.107-.28-.108-.387-.001-.108.106-.108.28-.001.387.805.812 1.616 1.588 2.41 2.31.053.047.118.071.184.071.074 0 .149-.03.203-.09.101-.111.093-.285-.02-.386-.786-.716-1.59-1.486-2.39-2.291" transform="translate(-36 -202) translate(36 202) translate(107.544 93.117)"/>
                </g>
                <path fill="#F5BBFD" d="M236.01 143.5c-.552.023-1.098.042-1.638.058-.151.005-.27.13-.265.282.003.148.125.265.273.265h.008c.542-.016 1.09-.035 1.645-.058.151-.006.268-.134.262-.285-.007-.151-.137-.265-.285-.263" transform="translate(-36 -202) translate(36 202)"/>
                <path fill="#F86302" d="M157.797 106.917L181.067 112.288 160.08 112.977z" transform="translate(-36 -202) translate(36 202)"/>
                <path fill="#FFB98C" d="M159.775 107.478L160.016 104.804 181.067 112.288z" transform="translate(-36 -202) translate(36 202)"/>
                <path fill="#FFBCB7" d="M123.886 101.759c-.253 3.995-8.497 6.727-18.416 6.1-9.918-.625-17.754-4.372-17.502-8.366.252-3.996 8.497-6.727 18.415-6.101 9.919.625 17.755 4.371 17.503 8.367" transform="translate(-36 -202) translate(36 202)"/>
                <path fill="#FF9A92" d="M117.439 101.352c-.162 2.561-5.447 4.312-11.805 3.91-6.358-.4-11.381-2.802-11.219-5.363.162-2.56 5.446-4.312 11.804-3.91 6.358.4 11.382 2.802 11.22 5.363" transform="translate(-36 -202) translate(36 202)"/>
                <path fill="#F5B6B7" d="M159.487 52.644c-.871-.33-2.323 1.676-3.397 3.435v-.001s.176-1.678-.394-1.608c-.571.07-.857 3.128-1.017 4.07l.069-.074c-.02.038-.03.061-.03.061l-.04.013c.295.716.793 1.587 1.613 2.257.262-.16.481-.302.666-.437 3.086-2.181 4.044-7.15 2.53-7.716" transform="translate(-36 -202) translate(36 202)"/>
                <path fill="#230B42" d="M156.292 60.798c-4.047 2.487-16.714 13.022-20.744 14.229-1.775.53-5.685 1-9.652 1.363-3.111.28-6.256.497-8.443.632-1.752.111-2.888.173-2.888.173l-2.569-12.887s6.77 1.732 13.106 2.755c4.156.67 8.123 1.034 9.875.402 4.293-1.559 18.826-8.673 19.7-8.925.296.716.793 1.588 1.615 2.258" transform="translate(-36 -202) translate(36 202)"/>
                <path fill="#391866" d="M114.53 102.131s-4.529 1.552-9.378 1.095c-4.85-.456-8.682-2.646-8.682-2.646.357-2.968.22-4.798.53-7.768.909-8.682-2.074-20.9 5.093-27.917.388-.38 1.09-.705 1.952-.95 2.848-.822 7.403-.839 7.951.363 0 0 5.432 5.323 5.953 10.787.521 5.464-1.483 10.494-2.11 13.713-.355 1.816-.543 3.705-.623 5.55-.285 6.629-.69 7.745-.685 7.773" transform="translate(-36 -202) translate(36 202)"/>
                <path fill="#F5B6B7" d="M105.091 113.555c-.684 1.443-4.778-.397-6.776-3.557-.21-.328-.49-.82-.825-1.436.58-1.238 1.88-1.484 2.592-1.525.16.574.259.903.259.903s.006 0 .02.013c.21.089 1.901.814 2.592.999.636.17.462.807-.405.855 1.418 1.306 2.927 2.955 2.543 3.748" transform="translate(-36 -202) translate(36 202)"/>
                <path fill="#391866" d="M96.396 86.187c-.097.626.194 2.94.668 5.834.108.665.223 1.364.348 2.079.56 3.22 1.25 6.79 1.844 9.5.32 1.459.605 2.667.827 3.437-.713.04-2.015.286-2.591 1.526-1.462-2.727-3.533-7.846-5.143-12.535-1.519-4.448-2.62-8.505-2.375-9.752.56-2.85 3.06-10.272 4.824-13.345 1.758-3.074 6.627-9.557 9.241-8.986h.006c3.516.782 1.524 8.008-1.981 11.92-2.363 2.638-3.973 5.488-4.869 7.684-.428 1.062-.696 1.973-.8 2.638" transform="translate(-36 -202) translate(36 202)"/>
                <path fill="#ED4244" d="M104.611 40.348s-2.444-1.216-3.867.99c-1.423 2.204-2.267 19.46-2.267 19.46s1.296 2.46 4.711 2.564c3.415.104 7.398 0 7.398 0s4.545 2.356 9.223 1.991c4.678-.365 5.864-1.444 5.864-1.444s4.113-27.244-8.877-29.212c-12.18-1.846-12.185 5.65-12.185 5.65" transform="translate(-36 -202) translate(36 202)"/>
                <path fill="#F5C6C7" d="M114.189 60.549s-.782.809-1.073 1.183c-.335.431-.62.984-.845 1.682-.468 1.436-.768 2.818-.803 3.003-.007.013-.007.02-.007.02s-1.46 1.915-2.78.514c-1.313-1.396-1.698-2.142-1.698-2.142s0-.014.014-.048c.056-.335.412-2.4.594-4.076.156-1.44-.145-4.282-.145-4.282.982.945 1.894 2.025 3.099 2.781 1.207.758 3.644 1.365 3.644 1.365" transform="translate(-36 -202) translate(36 202)"/>
                <path fill="#F5A7A8" d="M114.189 60.549l-1.073 1.183c-4.724-1.035-5.656-5.164-5.714-5.437.128.195 1.863 2.803 4.982 3.86.557.19 1.16.33 1.805.394" transform="translate(-36 -202) translate(36 202)"/>
                <path fill="#F5C6C7" d="M121.9 56.53c-.263 1.216-.942 2.306-2.338 3.154-.909.548-1.965.822-3.028.915-1.829.175-3.69-.203-5.338-1.008-.817-.405-1.572-.92-2.251-1.527-.624-.554-1.966-2.06-1.966-2.06-1.336-.552-4.293-.86-3.718-2.956.602-2.168 2.744-.4 2.744-.4s-.017-.115-.028-.317c-.016-.181-.027-.428-.033-.734-.01-.296-.005-.64.006-1.03.137-3.542 1.451-10.393 9.538-10.584 3.615-.082 5.361 2.371 5.739 2.973.055.088.082.137.082.137s-.044.876-.066 2.064l-.016.91c-.01 1.177 0 2.36.126 3.531.065.673.192 1.38.317 2.097.071.438.148.887.214 1.326.18 1.215.263 2.414.016 3.51" transform="translate(-36 -202) translate(36 202)"/>
                <path fill="#501347" d="M114.56 49.463c-.193-.107-.398.032-.541.24-.16-.176-.358-.279-.517-.164-.406.292.272 1.177.672.998.025-.011.046-.027.063-.045.325-.19.652-.846.323-1.029M120.333 49.463c-.194-.107-.399.032-.542.24-.159-.176-.358-.279-.517-.164-.406.292.272 1.177.672.998.025-.011.047-.027.064-.045.324-.19.652-.846.323-1.029" transform="translate(-36 -202) translate(36 202)"/>
                <path fill="#BF2A2B" d="M112.05 48.569s1.35-.567 2.179-.721c.83-.154 1.448-.14 1.448-.14s.149.12.161.29c.012.17-.088.395-.088.395s-.711-.044-1.605.096S112.5 49 112.5 49s-.238-.017-.373-.173c-.135-.156-.076-.258-.076-.258M121.703 48.072s-1.168-.35-1.845-.377c-.676-.027-1.153.08-1.153.08s-.09.139-.063.307c.027.17.152.373.152.373s.544-.15 1.267-.147c.723.003 1.386.254 1.386.254s.181-.053.252-.226c.072-.173.004-.264.004-.264" transform="translate(-36 -202) translate(36 202)"/>
                <path fill="#F5A7A8" d="M118.424 53.17c-.1 0-.192-.067-.216-.166-.027-.117.046-.233.165-.26.196-.046.332-.127.403-.241.091-.148.067-.343.03-.48-.07-.265-.633-.592-.895-.709l-.05-.023-.035-.044c-.023-.03-.563-.75-.731-2.633-.011-.119.079-.224.2-.235.123-.008.23.079.24.197.135 1.502.515 2.204.619 2.372.228.108.954.489 1.081.966.082.312.054.593-.08.812-.135.218-.364.366-.68.439-.018.004-.035.005-.051.005" transform="translate(-36 -202) translate(36 202)"/>
                <path fill="#F5DADB" d="M115.306 52.522c.038.385-.684.764-1.612.847-.93.082-1.712-.164-1.75-.55-.038-.384.684-.763 1.612-.846.928-.082 1.712.163 1.75.549M120.561 52.34c0 .335.566.616 1.32.684-.063-.445-.14-.89-.209-1.333-.65.095-1.11.348-1.11.649" transform="translate(-36 -202) translate(36 202)"/>
                <path fill="#F5A7A8" d="M118.052 55.711c-.824 0-1.447-.465-1.456-.472-.084-.064-.1-.184-.037-.268.064-.085.184-.101.269-.037.047.037 1.188.878 2.337 0 .084-.064.205-.047.27.036.063.085.047.205-.037.269-.464.354-.93.472-1.346.472" transform="translate(-36 -202) translate(36 202)"/>
                <path fill="#ED4244" d="M121.453 43.013s-.03-.052-.087-.144c-.45-.716-2.188-3.052-5.701-3.052l-.181.002c-8.386.198-9.576 7.578-9.698 10.744-.011.392-.017.74-.006 1.036.006.313.017.563.034.746l.01.116.113.029c.074.018.155.026.246.032l.113.003c.603 0 1.136-.234 1.583-.694 1.676-1.723 1.799-6.34 1.756-8.519 2.055.965 6.776 2.925 11.23 2.925h.176c.07 0 .136 0 .2-.007l.147-.014.02-1.055c.021-1.185.065-2.059.065-2.06l.002-.047-.022-.04z" transform="translate(-36 -202) translate(36 202)"/>
                <path fill="#FFF" d="M102.152 44.392s3.653.286 4.005.728c.352.441-3.286 2.264-4.005-.728" transform="translate(-36 -202) translate(36 202)"/>
                <path fill="#8DE9FF" d="M253.98 144.907c-.252 3.995-8.497 6.726-18.415 6.1-9.919-.625-17.755-4.372-17.502-8.367.252-3.994 8.496-6.726 18.415-6.1 9.919.626 17.755 4.372 17.503 8.367" transform="translate(-36 -202) translate(36 202)"/>
                <path fill="#73D4FF" d="M245.595 144.378c-.162 2.56-5.446 4.312-11.805 3.91-6.357-.4-11.38-2.802-11.219-5.363.162-2.561 5.446-4.312 11.804-3.91 6.359.4 11.382 2.801 11.22 5.363" transform="translate(-36 -202) translate(36 202)"/>
                <path fill="#F5B6B7" d="M185.071 90.902c.896-.254 2.173 1.867 3.094 3.71 0 0-.033-1.687.53-1.57.562.118.588 3.19.669 4.142l-.063-.08.026.064s.013.007.037.016c-.354.688-.923 1.514-1.798 2.114-.247-.183-.454-.344-.627-.493-2.89-2.435-3.425-7.467-1.868-7.903" transform="translate(-36 -202) translate(36 202)"/>
                <path fill="#A57FF9" d="M187.565 99.298c3.822 2.82 15.553 14.388 19.466 15.931 1.725.68 5.58 1.477 9.503 2.175 3.076.541 6.192 1.024 8.359 1.343 1.737.26 2.863.417 2.863.417l3.65-12.624s-6.893 1.153-13.293 1.637c-4.197.317-8.18.343-9.874-.434-4.145-1.917-18.024-10.234-18.874-10.558-.356.687-.924 1.514-1.8 2.113" transform="translate(-36 -202) translate(36 202)"/>
                <path fill="#B698F9" d="M225.682 144.014s4.382 1.928 9.253 1.883c4.87-.044 8.875-1.902 8.875-1.902-.105-2.987.187-4.8.128-7.785-.171-8.728 3.834-20.65-2.714-28.248-.355-.412-1.027-.794-1.865-1.112-2.769-1.06-7.306-1.46-7.953-.31 0 0-4.257 4.093-5.238 9.493-.982 5.4-1.016 11.334-.662 14.594.2 1.84.227 3.738.15 5.583-.275 6.629.034 7.776.026 7.804" transform="translate(-36 -202) translate(36 202)"/>
                <path fill="#F5B6B7" d="M234.122 156.194c.56 1.496 4.795.01 7.053-2.97.237-.31.557-.777.943-1.362-.473-1.283-1.747-1.638-2.454-1.739-.208.56-.333.878-.333.878s-.007 0-.023.012c-.216.07-1.962.65-2.667.775-.647.117-.528.766.332.886-1.523 1.182-3.166 2.697-2.85 3.52" transform="translate(-36 -202) translate(36 202)"/>
                <path fill="#A57FF9" d="M245.1 129.66c.044.631-.442 2.913-1.158 5.756-.165.654-.338 1.34-.524 2.043-.829 3.16-1.82 6.66-2.64 9.31-.441 1.427-.828 2.605-1.115 3.355.708.099 1.984.454 2.454 1.739 1.686-2.594 4.183-7.52 6.184-12.055 1.889-4.305 3.33-8.254 3.19-9.516-.316-2.888-2.18-10.494-3.677-13.706-1.493-3.211-5.796-10.082-8.45-9.736h-.005c-3.57.483-2.195 7.85.966 12.045 2.132 2.829 3.495 5.804 4.202 8.069.337 1.094.527 2.024.573 2.696" transform="translate(-36 -202) translate(36 202)"/>
                <path fill="#F5B6B7" d="M229.538 102.61s.712.871.97 1.269c.297.457.535 1.033.699 1.747.345 1.47.527 2.873.546 3.06.006.014.006.02.006.02s1.292 2.032 2.727.747c1.426-1.279 1.873-1.99 1.873-1.99s0-.013-.011-.048c-.026-.34-.207-2.428-.247-4.113-.033-1.448.506-4.254.506-4.254-1.058.859-2.058 1.857-3.322 2.51-1.267.653-3.747 1.051-3.747 1.051" transform="translate(-36 -202) translate(36 202)"/>
                <path fill="#F57376" d="M229.538 102.61l.97 1.269c4.795-.632 6.072-4.667 6.152-4.934-.144.183-2.092 2.635-5.29 3.424-.571.143-1.183.23-1.832.24" transform="translate(-36 -202) translate(36 202)"/>
                <path fill="#F5B6B7" d="M222.194 97.953c.16 1.233.744 2.376 2.063 3.34.86.622 1.89.985 2.94 1.167 1.807.33 3.695.11 5.405-.552.847-.335 1.643-.784 2.371-1.332.67-.499 2.134-1.886 2.134-1.886 1.378-.437 4.35-.493 3.954-2.631-.417-2.212-2.7-.63-2.7-.63s.027-.114.055-.315c.031-.178.063-.423.094-.728.036-.294.06-.638.082-1.026.163-3.542-.568-10.479-8.61-11.353-3.594-.387-5.542 1.91-5.97 2.477-.061.083-.092.13-.092.13s-.03.876-.109 2.062l-.061.907c-.089 1.174-.2 2.352-.424 3.509-.123.665-.307 1.358-.494 2.063-.108.43-.222.871-.325 1.302-.282 1.196-.466 2.384-.313 3.496" transform="translate(-36 -202) translate(36 202)"/>
                <path fill="#501347" d="M230.106 91.532c.202-.09.394.065.519.285.173-.163.38-.248.529-.12.38.325-.371 1.15-.754.937-.025-.013-.044-.03-.06-.05-.307-.217-.578-.898-.234-1.052M224.354 91.044c.202-.09.394.065.52.284.173-.162.38-.247.528-.12.38.326-.37 1.15-.754.938-.024-.013-.043-.03-.06-.05-.306-.217-.577-.898-.234-1.052M232.682 90.852s-1.297-.678-2.11-.901c-.813-.225-1.43-.262-1.43-.262s-.159.106-.186.275c-.026.169.054.4.054.4s.713.017 1.592.232c.879.215 1.596.65 1.596.65s.238.001.386-.143c.148-.144.098-.25.098-.25M223.106 89.542s1.194-.25 1.87-.22c.676.03 1.143.177 1.143.177s.078.146.036.312c-.041.166-.183.358-.183.358s-.529-.194-1.25-.253c-.721-.058-1.403.136-1.403.136s-.176-.068-.232-.246c-.056-.179.019-.264.019-.264" transform="translate(-36 -202) translate(36 202)"/>
                <path fill="#F5898B" d="M225.943 94.9c.1.008.196-.051.229-.149.037-.114-.026-.236-.143-.274-.192-.061-.32-.153-.38-.273-.08-.155-.039-.347.009-.48.092-.259.681-.537.952-.631l.053-.02.038-.04c.024-.027.624-.7.951-2.562.02-.117-.06-.23-.18-.25-.121-.02-.235.058-.256.176-.26 1.485-.698 2.152-.816 2.31-.237.09-.993.407-1.16.872-.108.304-.104.586.012.816.115.229.33.394.64.494.017.005.034.009.051.01" transform="translate(-36 -202) translate(36 202)"/>
                <path fill="#F5CECE" d="M228.895 94.975c-.124.367.494.899 1.379 1.19.886.29 1.705.227 1.828-.14.125-.366-.493-.899-1.379-1.189-.886-.29-1.705-.228-1.828.139M223.883 93.89c-.028.335-.616.566-1.373.57.1-.437.215-.873.322-1.31.639.15 1.077.441 1.051.74" transform="translate(-36 -202) translate(36 202)"/>
                <path fill="#F5898B" d="M226.098 97.462c.821.07 1.482-.341 1.491-.347.09-.057.116-.175.06-.265-.058-.09-.176-.115-.265-.059-.05.033-1.259.774-2.33-.197-.078-.071-.2-.065-.27.013-.071.079-.065.2.013.27.433.393.887.55 1.3.585" transform="translate(-36 -202) translate(36 202)"/>
                <path fill="#501347" d="M237.449 86.86s-2.813.974-11.04.29c-5.143-.428-13.196-9.514-7.68-12.252 5.515-2.738 10.222 6.023 10.222 6.023s.653-2.282 2.667-2.076c2.014.205 2.648 2.008 2.648 2.008s.958-1.302 2.669-.822c1.712.479 1.163 2.875 1.163 2.875s3.035-1.756 4.404.092c1.369 1.848-.844 6.321-.844 6.321s1.984.356 1.71 2.968c-.273 2.613-5.006 3.141-5.006 3.141s-1.649-1.525-1.702-4.183c-.053-2.658.789-4.386.789-4.386" transform="translate(-36 -202) translate(36 202)"/>
            </g>
        </g>
    </g>
</svg>
